<?xml version="1.0" encoding="UTF-8" standalone="no"?>
<svg
   xmlns:dc="http://purl.org/dc/elements/1.1/"
   xmlns:cc="http://creativecommons.org/ns#"
   xmlns:rdf="http://www.w3.org/1999/02/22-rdf-syntax-ns#"
   xmlns:svg="http://www.w3.org/2000/svg"
   xmlns="http://www.w3.org/2000/svg"
   width="103.3506mm"
   height="104.34225mm"
   viewBox="0 0 103.3506 104.34225"
   version="1.1"
   id="svg8">
  <defs
     id="defs2" />
  <metadata
     id="metadata5">
    <rdf:RDF>
      <cc:Work
         rdf:about="">
        <dc:format>image/svg+xml</dc:format>
        <dc:type
           rdf:resource="http://purl.org/dc/dcmitype/StillImage" />
        <dc:title></dc:title>
      </cc:Work>
    </rdf:RDF>
  </metadata>
  <g
     id="layer1"
     transform="translate(-52.313118,-89.40094)">
    <ellipse
       style="fill:#d4aa00;stroke-width:1;stroke-linecap:round;stroke-linejoin:bevel;stroke-dashoffset:188.976"
       id="path10"
       cx="103.98842"
       cy="141.57207"
       rx="51.675301"
       ry="52.171127" />
    <ellipse
       style="fill:#aa8800;stroke-width:1;stroke-linecap:round;stroke-linejoin:bevel;stroke-dashoffset:188.976"
       id="path16"
       cx="104.53063"
       cy="141.09978"
       rx="44.209789"
       ry="43.449085" />
    <path
       style="fill:#241c1c;stroke-width:1.22676;stroke-linecap:round;stroke-linejoin:bevel;stroke-dashoffset:188.976"
       id="path18"
       d="m 99.75,107.87889 c 0.0928,0.34884 0.203166,0.69262 0.27853,1.04654 0.57069,2.68004 0.84308,5.42987 1.17465,8.1532 0.62165,5.10586 0.22563,1.71717 0.79418,6.70163 0.48905,4.39446 1.20926,8.74874 2.04321,13.07764 0.52347,2.49316 1.10965,4.96566 1.52666,7.48447 0.41325,2.21471 0.62613,4.46134 0.73633,6.71619 0.15021,2.00954 -0.0126,4.00946 -0.22204,6.00386 -0.28679,2.02779 -0.78979,4.01175 -1.22428,6.00628 -0.3827,2.16109 -0.828,4.30714 -1.33322,6.43733 -0.41115,1.97831 -0.91432,3.93446 -1.47959,5.86571 -0.36336,1.4074 -0.81288,2.78691 -1.29068,4.15137 -0.24891,0.74166 -0.12035,0.39099 -0.38099,1.05408 0,0 4.17836,-2.12636 4.17836,-2.12636 v 0 c 0.23025,-0.6721 0.11245,-0.32081 0.35231,-1.05435 0.45269,-1.37506 0.91155,-2.74901 1.25315,-4.16409 0.52237,-1.94002 1.02295,-3.88739 1.42506,-5.86271 0.50028,-2.13942 0.95242,-4.29092 1.34988,-6.45652 0.43641,-2.01287 0.94435,-4.01621 1.21115,-6.0666 0.20606,-2.01919 0.30843,-4.04215 0.17579,-6.07375 -0.12711,-2.26863 -0.38133,-4.52218 -0.79667,-6.75043 -0.42118,-2.52161 -1.00064,-4.99901 -1.56273,-7.4855 -0.91906,-4.26024 -1.77906,-8.53804 -2.28518,-12.88645 -0.14585,-1.20021 -0.67661,-5.54089 -0.80293,-6.69256 -0.30617,-2.79145 -0.47866,-5.61151 -0.88438,-8.38915 -0.0589,-0.40351 -0.15131,-0.80023 -0.22696,-1.20035 0,0 -4.00961,2.51052 -4.00961,2.51052 z" />
    <path
       style="fill:#241c1c;stroke-width:1.22676;stroke-linecap:round;stroke-linejoin:bevel;stroke-dashoffset:188.976"
       id="path20"
       d="m 126.10548,116.1028 c -2.5481,-0.42167 -5.08536,-0.9273 -7.62172,-1.42845 -4.95645,-1.05087 -9.92351,-2.04052 -14.9197,-2.8335 -3.42701,-0.49027 -6.886498,-0.24156 -10.228227,0.72584 -0.576577,0.16692 -1.14112,0.38072 -1.711681,0.57108 -2.871872,1.30917 -2.344439,0.98913 -6.478498,3.83107 -0.647346,0.44502 -1.282794,1.30739 -1.675504,2.01689 -0.52184,0.94277 -0.528519,1.2285 -0.796204,2.26503 -0.01342,0.37356 -0.07612,0.74892 -0.0403,1.12068 0.232728,2.41621 2.510307,3.88564 4.149967,5.10456 2.130148,1.439 4.306791,2.78741 6.556308,3.98593 2.159934,1.22997 4.305058,2.49565 6.423511,3.81057 2.059588,1.27528 3.967328,2.8147 6.007708,4.12435 1.95575,1.23189 4.0071,2.26379 6.02224,3.37022 1.59443,0.86038 3.25696,1.62112 4.67503,2.82252 0.27378,0.23194 0.52541,0.494 0.78812,0.741 1.71028,1.68189 2.57905,3.94547 3.31186,6.27689 0.63091,2.35804 1.18609,4.81615 1.20148,7.29254 0.002,0.39654 -0.0417,0.79176 -0.0625,1.18764 -0.13941,0.91873 -0.39578,1.67817 -1.06612,2.27926 -0.22191,0.19898 -0.96428,0.67846 -0.71661,0.5206 3.74857,-2.38933 3.92841,-2.42007 2.01112,-1.50219 -2.8755,1.19107 -5.96325,1.3952 -9.00313,1.50286 -3.80637,0.0793 -7.56329,-0.64248 -11.29971,-1.34618 -3.671616,-0.77739 -7.314112,-1.70137 -11.006663,-2.35394 -1.914504,-0.29278 -3.834436,-0.53673 -5.757027,-0.75424 0,0 -3.63461,2.85221 -3.63461,2.85221 v 0 c 1.941094,0.18114 3.877221,0.41053 5.810284,0.67707 3.707064,0.60542 7.357882,1.52395 11.033049,2.32342 3.746757,0.71418 7.510897,1.46718 11.328367,1.43902 3.02756,-0.0622 6.10068,-0.21283 8.998,-1.27632 2.54706,-1.07648 1.45011,-0.54845 5.73015,-3.40447 0.46252,-0.30865 0.91925,-0.84639 1.17353,-1.37462 0.29436,-0.61151 0.31187,-1.13779 0.40849,-1.81336 0.033,-2.92746 -0.46275,-5.82848 -1.24437,-8.62187 -0.76714,-2.50421 -1.59682,-4.6852 -3.39725,-6.52294 -0.27045,-0.2626 -0.52811,-0.54212 -0.81136,-0.7878 -1.42326,-1.23448 -3.10197,-2.02468 -4.72508,-2.87385 -2.01147,-1.08912 -4.04141,-2.14284 -5.99629,-3.35268 -2.06294,-1.28368 -3.98387,-2.81634 -6.04954,-4.09551 -2.10863,-1.34537 -4.254188,-2.62141 -6.417057,-3.85757 -2.245996,-1.17523 -4.417358,-2.5064 -6.556708,-3.90155 -1.318791,-0.96769 -3.005098,-2.02552 -3.657748,-3.72539 -0.2978,-0.77564 -0.178015,-1.18112 -0.118189,-1.98429 0.288838,-0.95238 0.310848,-1.24113 0.842805,-2.09119 0.216121,-0.34535 0.457703,-0.67477 0.730284,-0.96766 0.296456,-0.31856 1.35045,-1.03332 0.968304,-0.85752 -0.906886,0.41721 -1.76607,0.96947 -2.568936,1.59387 -0.435393,0.3386 0.970559,-0.48546 1.455837,-0.7282 1.498683,-0.53894 2.028288,-0.77985 3.602643,-1.13206 2.736165,-0.61212 5.51911,-0.73869 8.293225,-0.39104 4.9917,0.73093 9.95925,1.64965 14.87979,2.83517 2.45928,0.54584 4.92462,1.06085 7.37461,1.65522 0,0 3.7841,-2.94712 3.7841,-2.94712 z" />
  </g>
</svg>
