<?xml version="1.0" encoding="UTF-8" standalone="no"?>
<svg
   xmlns:dc="http://purl.org/dc/elements/1.1/"
   xmlns:cc="http://creativecommons.org/ns#"
   xmlns:rdf="http://www.w3.org/1999/02/22-rdf-syntax-ns#"
   xmlns:svg="http://www.w3.org/2000/svg"
   xmlns="http://www.w3.org/2000/svg"
   width="103.3506mm"
   height="104.34225mm"
   viewBox="0 0 103.3506 104.34225"
   version="1.1"
   id="svg8">
  <defs
     id="defs2" />
  <metadata
     id="metadata5">
    <rdf:RDF>
      <cc:Work
         rdf:about="">
        <dc:format>image/svg+xml</dc:format>
        <dc:type
           rdf:resource="http://purl.org/dc/dcmitype/StillImage" />
        <dc:title></dc:title>
      </cc:Work>
    </rdf:RDF>
  </metadata>
  <g
     id="layer1"
     transform="translate(-52.313118,-89.40094)">
    <ellipse
       style="fill:#d4aa00;stroke-width:1;stroke-linecap:round;stroke-linejoin:bevel;stroke-dashoffset:188.976"
       id="path10"
       cx="103.98842"
       cy="141.57207"
       rx="51.675301"
       ry="52.171127" />
    <ellipse
       style="fill:#aa8800;stroke-width:1;stroke-linecap:round;stroke-linejoin:bevel;stroke-dashoffset:188.976"
       id="path16"
       cx="104.53063"
       cy="141.09978"
       rx="44.209789"
       ry="43.449085" />
    <path
       style="fill:#241c1c;stroke-width:1.22676;stroke-linecap:round;stroke-linejoin:bevel;stroke-dashoffset:188.976"
       id="path18"
       d="m 99.75,107.87889 c 0.0928,0.34884 0.203166,0.69262 0.27853,1.04654 0.57069,2.68004 0.84308,5.42987 1.17465,8.1532 0.62165,5.10586 0.22563,1.71717 0.79418,6.70163 0.48905,4.39446 1.20926,8.74874 2.04321,13.07764 0.52347,2.49316 1.10965,4.96566 1.52666,7.48447 0.41325,2.21471 0.62613,4.46134 0.73633,6.71619 0.15021,2.00954 -0.0126,4.00946 -0.22204,6.00386 -0.28679,2.02779 -0.78979,4.01175 -1.22428,6.00628 -0.3827,2.16109 -0.828,4.30714 -1.33322,6.43733 -0.41115,1.97831 -0.91432,3.93446 -1.47959,5.86571 -0.36336,1.4074 -0.81288,2.78691 -1.29068,4.15137 -0.24891,0.74166 -0.12035,0.39099 -0.38099,1.05408 0,0 4.17836,-2.12636 4.17836,-2.12636 v 0 c 0.23025,-0.6721 0.11245,-0.32081 0.35231,-1.05435 0.45269,-1.37506 0.91155,-2.74901 1.25315,-4.16409 0.52237,-1.94002 1.02295,-3.88739 1.42506,-5.86271 0.50028,-2.13942 0.95242,-4.29092 1.34988,-6.45652 0.43641,-2.01287 0.94435,-4.01621 1.21115,-6.0666 0.20606,-2.01919 0.30843,-4.04215 0.17579,-6.07375 -0.12711,-2.26863 -0.38133,-4.52218 -0.79667,-6.75043 -0.42118,-2.52161 -1.00064,-4.99901 -1.56273,-7.4855 -0.91906,-4.26024 -1.77906,-8.53804 -2.28518,-12.88645 -0.14585,-1.20021 -0.67661,-5.54089 -0.80293,-6.69256 -0.30617,-2.79145 -0.47866,-5.61151 -0.88438,-8.38915 -0.0589,-0.40351 -0.15131,-0.80023 -0.22696,-1.20035 0,0 -4.00961,2.51052 -4.00961,2.51052 z" />
    <path
       style="fill:#241c1c;stroke-width:1;stroke-linecap:round;stroke-linejoin:bevel;stroke-dashoffset:188.976"
       id="path44"
       d="m 99.676693,107.54483 c -0.154778,0.95126 -0.322664,1.88506 -0.680349,2.78227 -0.409247,0.86405 -0.927968,1.67038 -1.352093,2.52573 -0.389744,0.76547 -0.803404,1.5106 -1.326626,2.19263 -0.523684,0.69984 -1.005845,1.42636 -1.558988,2.10379 -0.547407,0.71168 -1.174512,1.35552 -1.731904,2.0614 -0.611566,0.76007 -1.197187,1.53586 -1.765978,2.32803 -0.544462,0.72498 -1.101614,1.43959 -1.683988,2.13504 -0.489662,0.67368 -1.027441,1.30878 -1.588728,1.92324 -0.499036,0.6403 -0.964715,1.29297 -1.529992,1.87748 -0.640591,0.59747 -1.116836,1.33739 -1.711553,1.97529 -0.806596,0.82801 -1.660726,1.60328 -2.392315,2.50024 -0.377719,0.41479 -0.669991,0.89577 -1.014156,1.33635 -0.237807,0.30443 -0.470879,0.57262 -0.664175,0.90824 -0.189826,0.49198 0.192794,0.75723 0.62571,0.84248 1.188977,-0.70457 2.404287,-1.3665 3.566933,-2.11372 0.09777,-0.0628 0.118337,-0.20024 0.183364,-0.29657 0.08355,-0.12378 0.176511,-0.24098 0.262088,-0.36337 0.3195,-0.45695 0.614675,-0.93032 0.923084,-1.39474 0.54787,-0.7304 1.02666,-1.50517 1.523812,-2.27003 0.364329,-0.51315 0.80092,-0.96993 1.270532,-1.38798 0.484835,-0.31868 0.929156,-0.70625 1.330245,-1.12414 0.393264,-0.41185 0.738476,-0.87313 1.038215,-1.3572 0.285504,-0.56927 0.672782,-1.08789 1.048364,-1.60176 0.495096,-0.60546 1.043207,-1.16588 1.566722,-1.74875 0.539543,-0.59096 1.096486,-1.16576 1.655635,-1.7381 0.496375,-0.53878 0.967087,-1.11316 1.401125,-1.70477 0.377156,-0.49929 0.784193,-0.97084 1.160119,-1.47093 0.414147,-0.44316 0.701177,-0.9809 1.065868,-1.45915 0.267738,-0.48011 0.565788,-0.93254 0.855916,-1.39859 0.0629,-0.0668 0.13323,-0.12732 0.18865,-0.20044 0.1344,-0.17731 0.2354,-0.3778 0.36177,-0.56092 0.20411,-0.29579 0.427,-0.57431 0.62681,-0.87326 0.35468,-0.45079 0.65359,-0.95071 1.01622,-1.39401 0.0104,-0.0193 0.0509,-0.0672 0.0311,-0.0578 -1.2373,0.58734 -2.487145,1.15143 -3.695042,1.79707 -0.08378,0.0448 -0.09195,0.16628 -0.135777,0.25056 -0.0724,0.13921 -0.139438,0.28118 -0.21287,0.41985 -0.286888,0.54174 -0.316243,0.57516 -0.637199,1.11407 -0.660564,1.10428 -1.40073,2.15502 -2.141574,3.20561 -0.434407,0.64596 -0.84635,1.31171 -1.346986,1.90962 -0.405384,0.55661 -0.806982,1.11924 -1.16695,1.70663 -0.21362,0.45799 -0.51081,0.86266 -0.816679,1.26211 -0.357653,0.45872 -0.695407,0.93698 -1.010079,1.42562 -0.334967,0.63317 -0.82147,1.16195 -1.208944,1.76188 -0.507204,0.5577 -0.96601,1.15116 -1.405904,1.76248 -0.421653,0.40502 -0.674851,0.94491 -1.064847,1.37258 -0.241808,0.43996 -0.549024,0.8387 -0.816263,1.26345 -0.392819,0.41273 -0.694778,0.89483 -1.113767,1.28242 -0.591547,0.48854 -1.109313,1.05237 -1.659575,1.58286 -0.435276,0.44405 -0.823587,0.94286 -1.323869,1.3152 0,0 3.667493,-1.48227 3.667493,-1.48227 v 0 c 0.45162,-0.42647 0.86206,-0.89493 1.296471,-1.33878 0.538941,-0.54898 1.111774,-1.06003 1.666809,-1.59227 0.385922,-0.43254 0.748607,-0.88919 1.092989,-1.3549 0.285162,-0.40761 0.531114,-0.84004 0.836432,-1.2325 0.334301,-0.46965 0.673037,-0.93463 1.037061,-1.38215 0.446183,-0.61002 0.953175,-1.16913 1.400979,-1.77719 0.407557,-0.59064 0.865339,-1.14583 1.226754,-1.76794 0.333095,-0.47298 0.644806,-0.96135 1.014828,-1.40755 0.296289,-0.41055 0.556062,-0.83967 0.797936,-1.28478 0.376203,-0.56672 0.750274,-1.13599 1.178092,-1.66583 0.468526,-0.61476 0.868799,-1.27754 1.303231,-1.91639 0.739963,-1.05164 1.44306,-2.12751 2.1114,-3.22629 0.30701,-0.52291 0.61962,-1.04487 0.89888,-1.58346 0.81775,-1.57711 -2.156885,0.34233 -3.457579,1.22111 -0.300797,0.48023 -0.674426,0.90977 -0.980916,1.38656 -0.395447,0.55145 -0.783717,1.10762 -1.188146,1.65237 -0.305202,0.4515 -0.530305,0.94847 -0.860994,1.38344 -0.32816,0.50051 -0.687274,0.97688 -1.06262,1.443 -0.380283,0.49521 -0.796411,0.96179 -1.160872,1.46948 -0.453414,0.56581 -0.882039,1.15447 -1.407692,1.65728 -0.55757,0.57665 -1.112134,1.1564 -1.649418,1.75211 -0.525782,0.58433 -1.084693,1.14269 -1.542764,1.78355 -0.378984,0.52746 -0.753086,1.0577 -1.067075,1.6272 -0.324707,0.45393 -0.657905,0.90341 -1.074759,1.2788 -0.4334,0.38287 -0.869622,0.75815 -1.324435,1.11503 -0.458759,0.44675 -0.885309,0.93295 -1.225426,1.47723 -0.477888,0.76227 -0.971309,1.51352 -1.4908,2.24815 -0.392221,0.59256 -0.774335,1.20511 -1.233977,1.74922 -0.853456,1.0103 -2.974396,1.78333 3.026183,-1.58741 -0.121793,0.20182 -0.0099,0.0987 -0.195186,0.13317 -0.02774,0.005 -0.07977,0.0799 -0.05983,0.0599 0.05222,-0.0523 0.0136,-0.16892 0.10354,-0.19598 0.504301,-0.75537 1.088458,-1.46044 1.652891,-2.17052 0.761082,-0.87206 1.619724,-1.64772 2.408365,-2.49428 0.571725,-0.66267 1.098693,-1.36466 1.729547,-1.97516 0.540054,-0.60459 0.994918,-1.27512 1.529281,-1.88478 0.550939,-0.62596 1.067752,-1.27882 1.579295,-1.93716 0.571987,-0.70588 1.127366,-1.42443 1.666158,-2.15599 0.563539,-0.78656 1.161619,-1.54683 1.766059,-2.30234 0.578713,-0.69197 1.204505,-1.3444 1.742353,-2.0697 0.539192,-0.69146 1.024305,-1.4218 1.555771,-2.11927 0.499116,-0.70774 0.898426,-1.47335 1.290216,-2.24476 0.45494,-0.85222 0.96892,-1.67678 1.34014,-2.57093 0.32408,-0.92474 0.44845,-1.88913 0.67972,-2.83872 0,0 -3.561499,1.71373 -3.561499,1.71373 z" />
  </g>
</svg>
